<svg width="63" height="62" viewBox="0 0 63 62" fill="none" xmlns="http://www.w3.org/2000/svg">
<path d="M30.4348 0.000244141C32.0914 0.000544204 33.4348 1.34357 33.4348 3.00024V28.5491C42.6294 26.335 48.0864 23.8675 51.3362 20.55C54.761 17.0538 56.1885 12.1146 56.0227 3.64868C55.9903 1.99228 57.3067 0.623619 58.9631 0.591064C60.6197 0.558619 61.9893 1.87496 62.0217 3.53149C62.199 12.5829 60.7313 19.5326 55.6223 24.7483C52.4645 27.9719 48.1045 30.321 42.4573 32.2278C48.0347 34.0456 52.3271 36.0985 55.4309 38.9446C60.5889 43.6745 62.0217 50.0971 62.0217 58.9817C62.0213 60.6382 60.6783 61.9817 59.0217 61.9817C57.3653 61.9815 56.0221 60.6381 56.0217 58.9817C56.0217 50.5939 54.631 46.3511 51.3762 43.3665C48.1672 40.4239 42.7749 38.3046 33.4348 35.8831V62.0071L30.4084 61.9807C25.3828 61.9367 20.9529 60.9841 17.1575 58.6555C13.3479 56.3181 10.4613 52.7688 8.22095 48.0354C3.83187 38.7621 1.62877 24.2641 0.0090332 3.23071C-0.118177 1.57879 1.11787 0.136309 2.76978 0.0090332C4.42165 -0.118107 5.86418 1.11791 5.99146 2.76978C7.62091 23.9295 9.79712 37.3404 13.6438 45.468C15.5213 49.4348 17.7178 51.9599 20.2952 53.5413C22.2426 54.7361 24.5691 55.4902 27.4348 55.8079V3.00024C27.4348 1.34339 28.778 0.000244141 30.4348 0.000244141Z" fill="#9F7FB9"/>
</svg>
