<svg width="63" height="62" viewBox="0 0 63 62" fill="none" xmlns="http://www.w3.org/2000/svg">
<path fill-rule="evenodd" clip-rule="evenodd" d="M30.4348 0.000188075C32.0913 0.000602864 33.4348 1.34359 33.4348 3.00019V28.549C42.6295 26.3349 48.0864 23.8666 51.3362 20.549C54.7608 17.0527 56.1885 12.1135 56.0227 3.64765C55.9906 1.9914 57.3068 0.622507 58.9631 0.590032C60.6195 0.557636 61.989 1.87417 62.0217 3.53046C62.199 12.5819 60.7311 19.5315 55.6223 24.7473C52.4645 27.9709 48.1046 30.32 42.4572 32.2267C48.0345 34.0446 52.3271 36.0976 55.4309 38.9435C60.5889 43.6734 62.0216 50.0963 62.0217 58.9807C62.0215 60.6373 60.6784 61.9806 59.0217 61.9807C57.3651 61.9805 56.0219 60.6373 56.0217 58.9807C56.0216 50.5931 54.631 46.35 51.3762 43.3654C48.1671 40.4229 42.7745 38.3044 33.4348 35.883V62.007L30.4084 61.9807C25.3829 61.9367 20.9528 60.984 17.1574 58.6555C13.348 56.3181 10.4613 52.7686 8.22092 48.0353C3.83185 38.762 1.62873 24.2639 0.00900143 3.23066C-0.118209 1.57873 1.11784 0.136252 2.76974 0.00897714C4.42153 -0.11805 5.86416 1.11792 5.99142 2.76972C7.62088 23.9293 9.7971 37.3404 13.6438 45.468C15.5213 49.4347 17.7178 51.9598 20.2951 53.5412C22.2425 54.7359 24.5691 55.4902 27.4348 55.8078V3.00019C27.4348 1.34333 28.7779 0.000188075 30.4348 0.000188075Z" fill="black"/>
</svg>
