<svg width="66" height="57" viewBox="0 0 66 57" fill="none" xmlns="http://www.w3.org/2000/svg">
<path d="M55.0442 1.07617L53.2708 2C54.933 1.13426 55.0375 1.08027 55.0442 1.07715L55.0452 1.07812C55.0455 1.07883 55.0465 1.07997 55.0471 1.08105C55.0485 1.08377 55.0505 1.08793 55.053 1.09277C55.0582 1.10285 55.0656 1.11776 55.0754 1.13672C55.0953 1.17508 55.1248 1.23154 55.1624 1.30469C55.2375 1.45123 55.3468 1.66623 55.4856 1.94141C55.7633 2.49212 56.159 3.28694 56.6331 4.2666C57.5804 6.22455 58.8451 8.93113 60.1116 11.9199C61.376 14.904 62.6546 18.1966 63.6194 21.3223C64.5719 24.4083 65.2707 27.4918 65.2708 30C65.2708 32.534 64.633 34.6392 63.4182 36.2363C62.1987 37.8394 60.5203 38.7672 58.7463 39.1543C55.2931 39.9076 51.3474 38.6644 48.7249 36.2803C47.9423 35.5688 47.2349 34.6398 46.5979 33.6084L45.9104 44.6113C45.4822 51.4628 39.8006 56.8008 32.9358 56.8008H32.0872C25.3777 56.8006 19.7701 51.6939 19.1438 45.0137L17.9211 31.9746C16.8058 33.7668 15.5126 35.3704 14.0325 36.4277C10.8435 38.7054 7.20434 39.3909 4.28247 38.1387C1.20809 36.8211 -0.401887 33.6567 0.0861816 29.752C0.32198 27.8662 1.2679 25.0956 2.42407 22.1865C3.60727 19.2095 5.10118 15.8693 6.55884 12.7529C8.01827 9.63278 9.4513 6.71604 10.5188 4.58105C11.0528 3.51315 11.496 2.63855 11.8059 2.03125C11.9608 1.72779 12.0831 1.49069 12.1663 1.3291C12.2076 1.24871 12.2393 1.18643 12.261 1.14453C12.2717 1.12379 12.2808 1.10747 12.2864 1.09668C12.289 1.09148 12.2908 1.08676 12.2922 1.08398C12.2929 1.08289 12.2938 1.08173 12.2942 1.08105L12.2952 1.08008V1.0791L12.8547 0H54.4836L55.0442 1.07617ZM14.0969 6.36914C13.0395 8.48395 11.6222 11.3679 10.1819 14.4473C8.73967 17.5306 7.28358 20.7913 6.14185 23.6641C4.97331 26.6043 4.21929 28.9339 4.05493 30.248C3.74305 32.7432 4.73306 33.9795 5.85864 34.4619C7.13669 35.0094 9.29754 34.8948 11.7083 33.1729C13.4578 31.923 15.1948 29.0732 16.6858 25.6758C16.8681 25.2603 17.0437 24.8427 17.2131 24.4268L16.4788 16.5869L16.8733 16.5498C16.871 16.5003 16.8704 16.4505 16.8704 16.4004C16.8704 14.6331 18.3032 13.2002 20.0706 13.2002C21.8378 13.2003 23.2708 14.6332 23.2708 16.4004C23.2708 16.4131 23.2689 16.4258 23.2688 16.4385C23.6089 16.9148 23.7393 17.5345 23.5686 18.1416C23.1247 19.7185 22.3475 22.276 21.2854 25.0098L23.1262 44.6406C23.5599 49.2653 27.4423 52.8006 32.0872 52.8008H32.9358C37.6884 52.8008 41.6217 49.1046 41.9182 44.3613L43.0881 25.6377C42.9599 25.2587 42.8353 24.8826 42.7161 24.5117C42.025 22.3617 41.4764 20.345 41.1008 18.8682C40.9128 18.1287 40.767 17.5215 40.6682 17.0977C40.6189 16.8858 40.5816 16.719 40.5559 16.6045C40.5431 16.5476 40.5333 16.5032 40.5266 16.4727C40.5233 16.4575 40.5206 16.4448 40.5188 16.4365C40.518 16.4327 40.5173 16.429 40.5168 16.4268C40.5166 16.4258 40.516 16.4244 40.5159 16.4238V16.4229C40.2972 15.4105 40.8864 14.4106 41.8508 14.0977C42.4263 13.5429 43.2081 13.2002 44.0706 13.2002C45.8378 13.2003 47.2708 14.6332 47.2708 16.4004C47.2708 16.4337 47.2679 16.4669 47.2668 16.5L47.6663 16.5254L47.1301 25.0889C47.6472 26.5589 48.22 28.0145 48.8362 29.3223C49.7277 31.2145 50.6166 32.5941 51.4153 33.3203C53.1926 34.936 55.8473 35.6925 57.8938 35.2461C58.8694 35.0332 59.6668 34.5609 60.2346 33.8145C60.8071 33.0616 61.2708 31.8656 61.2708 30C61.2707 28.1083 60.7195 25.4905 59.7971 22.502C58.8869 19.553 57.6643 16.396 56.429 13.4805C55.1955 10.5695 53.96 7.92573 53.0325 6.00879C52.6387 5.19504 52.2999 4.5138 52.0422 4C37.6487 4.00008 29.199 3.99991 15.2932 4C14.9929 4.58932 14.5827 5.39762 14.0969 6.36914ZM32.929 40.4004C35.6904 40.4004 37.929 42.639 37.929 45.4004C37.929 48.1618 35.6904 50.4004 32.929 50.4004C30.1676 50.4003 27.929 48.1617 27.929 45.4004C27.929 42.639 30.1676 40.4005 32.929 40.4004Z" fill="white"/>
</svg>
