<svg width="127" height="74" viewBox="0 0 127 74" fill="none" xmlns="http://www.w3.org/2000/svg">
<path d="M43 0C48.5676 0 53.5104 2.67609 56.6113 6.8125C61.9208 2.55095 68.6621 1.38064e-07 76 0H90C110.435 1.2886e-07 127 16.5655 127 37V74H0V31C0 13.8792 13.8792 0 31 0H43ZM116 70H123V61H116V70ZM4 68H12V61H4V68ZM16 68H32V61H16V68ZM36 68H52V61H36V68ZM56 68H72V61H56V68ZM76 68H92V61H76V68ZM96 68H112V61H96V68ZM4 57H12V50H4V57ZM16 57H32V50H16V57ZM36 57H52V50H36V57ZM56 57H72V50H56V57ZM76 57H92V50H76V57ZM116 57H123V50H116V57ZM96 57H112V50H96V57ZM31 4C16.0883 4 4 16.0883 4 31V46H123V37C123 18.7746 108.225 4 90 4H76C69.388 4 63.3318 6.37751 58.6377 10.3232C59.514 12.373 60 14.6298 60 17V31C60 33.3347 59.0521 35.1835 57.5039 36.3799C56.0186 37.5275 54.1466 37.952 52.4092 37.873C49.1075 37.723 45 35.5196 45 31C45 22.6661 48.2894 15.1011 53.6396 9.53027C51.2874 6.18599 47.3995 4 43 4H31ZM55.502 13.4258C51.4489 18.1487 49 24.2883 49 31C49 32.4804 50.3925 33.777 52.5908 33.877C53.6033 33.923 54.4815 33.6598 55.0586 33.2139C55.5727 32.8164 56 32.1651 56 31V17C56 15.7605 55.8259 14.5613 55.502 13.4258Z" fill="white"/>
</svg>
